<?xml version="1.0" encoding="UTF-8"?>
<svg id="Layer_1" xmlns="http://www.w3.org/2000/svg" xmlns:x="http://ns.adobe.com/Extensibility/1.0/" version="1.1" viewBox="0 0 92.1242783 85.1440749">
  <!-- Generator: Adobe Illustrator 30.2.1, SVG Export Plug-In . SVG Version: 2.1.1 Build 1)  -->
  <defs>
    <style>
      .st0 {
        fill: #ffd400;
      }

      .st1 {
        fill: #231f20;
      }
    </style>
  </defs>
  <rect class="st1" x="33.3558487" y="18.8611962" width="24.5817981" height="54.6527357"/>
  <path class="st0" d="M89.6621376,67.1436089L55.3621384,6.7436074c-4.0999985-7.1999998-14.5-7.1999998-18.6000023,0L2.4621392,67.1436089c-4.0999999,7.0999985,1.0999999,16,9.3000007,16h68.4999962c8.3000031,0,13.4000015-8.8000031,9.4000015-16ZM46.1621376,21.143607c3.2000008,0,4.7999992,2.8999996,4.7999992,8.8000011,0,3.2000008-.4000015,7.5999985-1.2999992,13.2999992-.9000015,5.7000008-1.5,9.2000008-2.0999985,10.2999992-.4000015.7999992-.7999992,1.2000008-1.4000015,1.2000008-.7000008,0-1.2000008-.2999992-1.5-1-.5-.9000015-1.2000008-4.0999985-2.0999985-9.5999985-.9000015-5.5-1.2999992-10.2999992-1.4000015-14.0999985,0-6.0000038,1.7000008-8.9000034,5-8.9000034ZM49.6621376,67.7436074c-1,1-2.2000008,1.5-3.5999985,1.5-1.4000015,0-2.5999985-.5-3.5999985-1.5s-1.5-2.1999969-1.5-3.5999985.5-2.5999985,1.5-3.5999985,2.2000008-1.5,3.5999985-1.5c1.2999992,0,2.5.5,3.5999985,1.5999985s1.5999985,2.3000031,1.5999985,3.5999985c.0000038,1.3000031-.5999985,2.5-1.5999985,3.5Z"/>
</svg>