<svg xmlns="http://www.w3.org/2000/svg" width="8.01" height="10.012" viewBox="0 0 8.01 10.012">
  <g id="noun-edit-5588455" transform="translate(-4 -2)">
    <path id="Path_4699" data-name="Path 4699" d="M9.707,2.147a.5.5,0,0,0-.708,0L4.147,7A.5.5,0,0,0,4,7.353V9.509a.5.5,0,0,0,.5.5H6.657a.5.5,0,0,0,.354-.147l4.852-4.852a.5.5,0,0,0,0-.708ZM5,9.009V7.56L9.353,3.209,10.8,4.657,6.45,9.009Z" fill="#0fbeff" fill-rule="evenodd"/>
    <path id="Path_4700" data-name="Path 4700" d="M11.509,21a.5.5,0,1,0,0-1H4.5a.5.5,0,1,0,0,1Z" transform="translate(0 -8.989)" fill="#0fbeff"/>
  </g>
</svg>
