<svg xmlns="http://www.w3.org/2000/svg" width="13.013" height="13.013" viewBox="0 0 13.013 13.013">
  <g id="noun-expand-7503010" transform="translate(-2.5 -2.5)">
    <path id="Path_4441" data-name="Path 4441" d="M3.615,9.006a.557.557,0,1,1-1.115,0V4.22A1.722,1.722,0,0,1,4.22,2.5h9.573a1.722,1.722,0,0,1,1.72,1.72v9.573a1.722,1.722,0,0,1-1.72,1.72H9.007a.557.557,0,1,1,0-1.115h4.786a.606.606,0,0,0,.6-.6V4.22a.606.606,0,0,0-.6-.6H4.22a.606.606,0,0,0-.6.6V9.006Zm.372,1.515A1.489,1.489,0,0,0,2.5,12.008v2.017a1.489,1.489,0,0,0,1.487,1.487H6a1.489,1.489,0,0,0,1.487-1.487V12.008A1.489,1.489,0,0,0,6,10.521ZM6,11.637H3.987a.374.374,0,0,0-.372.372v2.017a.373.373,0,0,0,.372.372H6a.374.374,0,0,0,.372-.372V12.008A.373.373,0,0,0,6,11.637ZM11.931,6.87v1.4a.557.557,0,1,0,1.115,0V5.524a.558.558,0,0,0-.557-.557H9.738a.557.557,0,1,0,0,1.115h1.4L7.774,9.449a.558.558,0,1,0,.789.789Z" fill="#0fbeff" fill-rule="evenodd"/>
  </g>
</svg>
