<?xml version="1.0" encoding="UTF-8"?>
<svg id="Layer_1" xmlns="http://www.w3.org/2000/svg" version="1.1" viewBox="0 0 12.132 12.1339998">
  <defs>
    <style>
      .st0 {
        fill: #f8bf13;
      }
    </style>
  </defs>
  <path class="st0" d="M11.6699219,9.4396639l-3.8873901-3.9192505.9557495-.9557495c.2832031-.2832031.4394531-.6601562.4394531-1.0605469,0-.4008789-.15625-.777832-.4394531-1.0605469l-1.3818359-1.3833008c-.5859375-.5839844-1.5361328-.5834961-2.121582.0004883l-.9719238.9719238-.411377-.411377c-.6157227-.612793-1.6176758-.6103516-2.2294922.0048828-.2963867.296875-.4594727.6914062-.4599609,1.1113281-.0029297.4160156.1640625.8232422.4584961,1.1171875l.4102173.4100952-.9707642.9707642c-.2832031.2832031-.4394531.6601562-.4394531,1.0605469,0,.4008789.15625.7773438.4394531,1.0605469l1.3823242,1.3828125c.2832031.2832031.6601562.4394531,1.0605469.4394531.4008789,0,.777832-.15625,1.0605469-.4394531l.9537354-.9537354,3.9124756,3.87854c.2900391.2998047.6923828.4697266,1.0986328.4697266.8740234.0360718,1.6025391-.6992188,1.6025391-1.5683594.0068359-.4238281-.1630859-.8359375-.4609375-1.1259766ZM2.3276367,3.1476717c-.1064453-.1064453-.1665039-.253418-.1655273-.4033203v-.0043945c-.0004883-.1538086.0595703-.2988281.168457-.4082031.1123047-.112793.2607422-.1694336.4091797-.1694336.1469727,0,.2939453.0556641.4057617.1669922l.4104004.4104004-.8178711.8178711-.4104004-.4099121ZM3.8564453,8.0324373c-.1894531.1894531-.5175781.1894531-.7070312,0l-1.3823242-1.3833008c-.0947266-.09375-.1464844-.2192383-.1464844-.3530273,0-.1333008.0522461-.2587891.1464844-.3535156l.9710083-.9708862.0011597.0011597,2.2319336-2.2319336-.0010376-.0010376.9717407-.9716187c.1943359-.1943359.512207-.1953125.7075195-.0004883l1.3818359,1.3833008c.0947266.0942383.1464844.2192383.1464844.3530273,0,.1333008-.0517578.2587891-.1464844.3535156l-4.1748047,4.1748047ZM10.5449219,11.1339998c-.1611328.0058594-.2929688-.0576172-.4042969-.1728516l-3.9150391-3.8818359.8515625-.8510742,3.8886719,3.9223633c.1074219.1044922.1679688.2490234.1650391.40625,0,.3183594-.2587891.5771484-.5859375.5771484Z"/>
</svg>
