<?xml version="1.0" encoding="UTF-8"?>
<svg id="Layer_1" xmlns="http://www.w3.org/2000/svg" version="1.1" viewBox="0 0 17 17">
  <!-- Generator: Adobe Illustrator 30.2.1, SVG Export Plug-In . SVG Version: 2.1.1 Build 1)  -->
  <defs>
    <style>
      .st0 {
        fill: #f44336;
      }

      .st1 {
        fill: #f8f8f8;
      }
    </style>
  </defs>
  <g id="Group_1405">
    <g id="Ellipse_364">
      <circle class="st1" cx="8.5" cy="8.499939" r="8.5"/>
    </g>
    <path class="st0" d="M9.9140625,8.4992065l1.2773438-1.2773438c.390625-.390625.390625-1.0234375,0-1.4140625s-1.0234375-.390625-1.4140625,0l-1.2773438,1.2773438-1.2773438-1.2773438c-.390625-.390625-1.0234375-.390625-1.4140625,0s-.390625,1.0234375,0,1.4140625l1.2773438,1.2773438-1.2773438,1.2773438c-.390625.390625-.390625,1.0234375,0,1.4140625.1953125.1953125.4511719.2929688.7070312.2929688s.5117188-.0976562.7070312-.2929688l1.2773438-1.2773438,1.2773438,1.2773438c.1953125.1953125.4511719.2929688.7070312.2929688s.5117188-.0976562.7070312-.2929688c.390625-.390625.390625-1.0234375,0-1.4140625l-1.2773438-1.2773438Z"/>
  </g>
</svg>